<?xml version="1.0" standalone="no"?><!DOCTYPE svg PUBLIC "-//W3C//DTD SVG 1.1//EN" "http://www.w3.org/Graphics/SVG/1.1/DTD/svg11.dtd"><svg t="1631982708297" class="icon" viewBox="0 0 1024 1024" version="1.1" xmlns="http://www.w3.org/2000/svg" p-id="2444" xmlns:xlink="http://www.w3.org/1999/xlink" width="256" height="256"><defs><style type="text/css"></style></defs><path d="M510.88384 0C229.19168 0 0 229.19168 0 510.88384c0 281.69216 229.1456 510.88384 510.88384 510.88384 281.69216 0 510.88384-229.19168 510.88384-510.88384C1021.76768 229.19168 792.576 0 510.88384 0z" fill="#03C777" p-id="2445"></path><path d="M757.38624 426.58816L463.9232 723.31776l-0.27648 0.2304c-0.14336 0.0512-0.14336 0.23552-0.23552 0.2816-2.32448 2.2784-5.25824 3.67616-7.9104 5.21216-1.39776 0.78848-2.51392 1.95584-3.91168 2.5088a36.95616 36.95616 0 0 1-27.5968-0.08704c-1.44896-0.60928-2.6112-1.86368-4.00896-2.65728-2.69824-1.536-5.5808-2.88256-7.9104-5.21216-0.23552-0.36864-0.37376-0.36864-0.46592-0.4608l-144.29184-148.34176a36.6336 36.6336 0 1 1 52.45952-51.15392l118.31808 121.52832 267.16672-270.15168a36.66432 36.66432 0 0 1 52.13184 51.57376z" fill="#FFFFFF" p-id="2446"></path></svg>