<?xml version="1.0" encoding="utf-8"?>
<!-- Generator: Adobe Illustrator 22.1.0, SVG Export Plug-In . SVG Version: 6.00 Build 0)  -->
<svg version="1.1" id="Layer_1" xmlns="http://www.w3.org/2000/svg" xmlns:xlink="http://www.w3.org/1999/xlink" x="0px" y="0px"
	 viewBox="0 0 64 64" style="enable-background:new 0 0 64 64;" xml:space="preserve">
<style type="text/css">
	.st0{fill:#3E86A0;}
</style>
<path class="st0" d="M53.9,63.3H10.3C5,63.3,1,59.3,1,54V10.3C1,5,5,1,10.3,1h43.6c5.3,0,9.3,4,9.3,9.3v43.6
	C63.2,59.2,59.2,63.2,53.9,63.3z M35.2,57h18.7c1.9,0,3.1-1.2,3.1-3.1V10.3c0-1.9-1.2-3.1-3.1-3.1H35.2V57z M10.3,7.2
	c-1.9,0-3.1,1.2-3.1,3.1v43.6c0,1.9,1.2,3.1,3.1,3.1H29V7.2H10.3z"/>
</svg>
