<?xml version="1.0" encoding="utf-8"?>
<!-- Generator: Adobe Illustrator 22.1.0, SVG Export Plug-In . SVG Version: 6.00 Build 0)  -->
<svg version="1.1" id="Layer_1" xmlns="http://www.w3.org/2000/svg" xmlns:xlink="http://www.w3.org/1999/xlink" x="0px" y="0px"
	 viewBox="0 0 64 64" style="enable-background:new 0 0 64 64;" xml:space="preserve">
<style type="text/css">
	.st0{fill:#87939A;}
</style>
<path class="st0" d="M53.3,64H10.7C4.8,64,0,59.2,0,53.3v-40c0-1.6,1.1-2.7,2.7-2.7h58.7c1.6,0,2.7,1.1,2.7,2.7v40
	C64,59.2,59.2,64,53.3,64z M5.3,16v37.3c0,2.9,2.4,5.3,5.3,5.3h42.7c2.9,0,5.3-2.4,5.3-5.3V16H5.3z"/>
<path class="st0" d="M32,16"/>
<path class="st0" d="M61.3,13.3H2.7v-2.7c0-4.5,3.5-8,8-8h42.7c4.5,0,8,3.5,8,8L61.3,13.3z"/>
<path class="st0" d="M61.3,16H2.7C1.1,16,0,14.9,0,13.3v-2.7C0,4.8,4.8,0,10.7,0h42.7C59.2,0,64,4.8,64,10.7v2.7
	C64,14.9,62.9,16,61.3,16z M5.3,10.7h53.3c0-2.9-2.4-5.3-5.3-5.3H10.7C7.7,5.3,5.3,7.7,5.3,10.7z"/>
<path class="st0" d="M18.7,64c-1.6,0-2.7-1.1-2.7-2.7l0-48c0-1.6,1.1-2.7,2.7-2.7s2.7,1.1,2.7,2.7v48C21.3,62.9,20.3,64,18.7,64z"/>
<path class="st0" d="M2.7,21.3"/>
<path class="st0" d="M61.3,21.3"/>
<path class="st0" d="M61.3,32H2.7C1.1,32,0,30.9,0,29.3s1.1-2.7,2.7-2.7h58.7c1.6,0,2.7,1.1,2.7,2.7S62.9,32,61.3,32z"/>
<path class="st0" d="M61.3,48H2.7C1.1,48,0,46.9,0,45.3s1.1-2.7,2.7-2.7h58.7c1.6,0,2.7,1.1,2.7,2.7S62.9,48,61.3,48z"/>
</svg>
