<?xml version="1.0" encoding="utf-8"?>
<!-- Generator: Adobe Illustrator 22.0.1, SVG Export Plug-In . SVG Version: 6.00 Build 0)  -->
<svg version="1.1" id="Layer_1" xmlns="http://www.w3.org/2000/svg" xmlns:xlink="http://www.w3.org/1999/xlink" x="0px" y="0px"
	 viewBox="0 0 64 64" style="enable-background:new 0 0 64 64;" xml:space="preserve">
<style type="text/css">
	.st0{fill:#DDDDDD;}
</style>
<path class="st0" d="M15.8,18.8H0.7c-0.2,0-0.3,0.1-0.3,0.3v41.5c0,1.8,1.5,3.3,3.3,3.3h9.2c1.8,0,3.3-1.5,3.3-3.3V19.2
	C16.1,19,16,18.8,15.8,18.8z M12.8,0.7H3.6C1.8,0.7,0.3,2.2,0.3,4v9.2c0,0.2,0.1,0.3,0.3,0.3h15.1c0.2,0,0.3-0.1,0.3-0.3V4
	C16.1,2.2,14.7,0.7,12.8,0.7z M31.8,0.7h-9.2c-1.8,0-3.3,1.5-3.3,3.3v9.2c0,0.2,0.1,0.3,0.3,0.3h15.1c0.2,0,0.3-0.1,0.3-0.3V4
	C35.1,2.2,33.6,0.7,31.8,0.7z M34.7,18.8H19.6c-0.2,0-0.3,0.1-0.3,0.3v41.5c0,1.8,1.5,3.3,3.3,3.3h9.2c1.8,0,3.3-1.5,3.3-3.3V19.2
	C35.1,19,34.9,18.8,34.7,18.8z M61,43.6L53.8,2.7c-0.3-1.8-2-3-3.8-2.7l-9.1,1.6c-1.8,0.3-3,2-2.7,3.8c0,0,0,0,0,0l7.2,40.9
	c0,0.2,0.2,0.3,0.4,0.3c0,0,0,0,0,0L60.7,44C60.9,43.9,61,43.8,61,43.6C61,43.6,61,43.6,61,43.6z M63.6,58.5L62,49.4
	c0-0.2-0.2-0.3-0.4-0.3c0,0,0,0,0,0l-14.9,2.6c-0.2,0-0.3,0.2-0.3,0.4l1.6,9.1c0.3,1.8,2,3,3.8,2.7l9.1-1.6
	C62.7,62,63.9,60.3,63.6,58.5z"/>
</svg>
