<?xml version="1.0" encoding="utf-8"?>
<!-- Generator: Adobe Illustrator 22.0.1, SVG Export Plug-In . SVG Version: 6.00 Build 0)  -->
<svg version="1.1" id="Layer_1" xmlns="http://www.w3.org/2000/svg" xmlns:xlink="http://www.w3.org/1999/xlink" x="0px" y="0px"
	 viewBox="0 0 256 256" style="enable-background:new 0 0 256 256;" xml:space="preserve">
<style type="text/css">
	.st0{fill:#8BA74F;}
</style>
<path class="st0" d="M245.8,0H11.1C5.4,0,0.9,4.6,0.9,10.2v234.7c0,5.6,4.6,10.2,10.2,10.2h234.7c5.6,0,10.2-4.6,10.2-10.2V10.2
	C256,4.6,251.4,0,245.8,0z M128.8,129.5l-61.2,51.3c-1.7,1.4-4.2,0.2-4.2-1.9v-20c0-0.7,0.4-1.5,0.9-1.9l35-29.4l-35-29.4
	c-0.6-0.5-0.9-1.2-0.9-1.9v-20c0-2.2,2.5-3.3,4.2-1.9l61.2,51.3C130,126.6,130,128.5,128.8,129.5L128.8,129.5z M193.5,178.9
	c0,1.4-1.1,2.6-2.4,2.6h-59c-1.3,0-2.4-1.1-2.4-2.6v-15.3c0-1.4,1.1-2.6,2.4-2.6h59c1.3,0,2.4,1.1,2.4,2.6V178.9z"/>
</svg>
