<?xml version="1.0" standalone="no"?><!DOCTYPE svg PUBLIC "-//W3C//DTD SVG 1.1//EN" "http://www.w3.org/Graphics/SVG/1.1/DTD/svg11.dtd"><svg t="1623594007122" class="icon" viewBox="0 0 1024 1024" version="1.1" xmlns="http://www.w3.org/2000/svg" p-id="7016" xmlns:xlink="http://www.w3.org/1999/xlink" width="64" height="64"><defs><style type="text/css"></style></defs><path d="M841.216 19.611826 426.674087 387.85113C398.113391 379.570087 368.038957 374.895304 336.829217 374.895304 158.497391 374.895304 13.957565 519.43513 13.957565 697.744696 13.957565 876.076522 158.497391 1020.594087 336.829217 1020.594087 515.138783 1020.594087 659.678609 876.054261 659.678609 697.744696 659.678609 647.43513 647.835826 599.974957 627.311304 557.501217L627.311304 557.256348 749.189565 557.256348 749.189565 389.676522 894.374957 389.676522 894.374957 207.426783 1009.775304 207.426783 1009.775304 19.611826 841.216 19.611826 841.216 19.611826ZM273.541565 867.906783C217.622261 867.906783 172.321391 822.583652 172.321391 766.664348 172.321391 710.745043 217.622261 665.421913 273.541565 665.421913 329.438609 665.421913 374.739478 710.745043 374.739478 766.664348 374.739478 822.583652 329.438609 867.906783 273.541565 867.906783L273.541565 867.906783Z" p-id="7017" fill="#bfbfbf"></path></svg>