<?xml version="1.0" encoding="utf-8"?>
<!-- Generator: Adobe Illustrator 22.0.1, SVG Export Plug-In . SVG Version: 6.00 Build 0)  -->
<svg version="1.1" id="Layer_1" xmlns="http://www.w3.org/2000/svg" xmlns:xlink="http://www.w3.org/1999/xlink" x="0px" y="0px"
	 viewBox="0 0 256 256" style="enable-background:new 0 0 256 256;" xml:space="preserve">
<style type="text/css">
	.st0{fill:#8BA74F;}
</style>
<path class="st0" d="M242.3,162.1l-10.2-8.4c-6.2-5.1-9.6-12.9-9.2-20.9v-5.5v-5.5c-0.4-8,3-15.8,9.2-20.9l10.2-8.4
	c4.8-3.9,6.1-10.8,3.1-16.2l-14.8-25.5c-3.1-5.3-9.6-7.6-15.4-5.5l-12.8,4.6c-7.5,2.8-15.9,1.9-22.7-2.4c-3-2.1-6.2-3.9-9.4-5.5
	c-7.2-3.7-12.2-10.5-13.5-18.5l-2.2-12.8c-1-6.2-6.4-10.8-12.8-10.7h-29.3c-6.3-0.1-11.7,4.5-12.8,10.7l-2.2,12.8
	c-1.2,7.9-6,14.7-13,18.5c-3.3,1.6-6.4,3.4-9.4,5.5c-6.8,4.3-15.2,5.2-22.7,2.4l-12.8-4.6c-5.7-2-12.1,0.3-15.2,5.5L9.7,76.3
	c-3.1,5.4-1.8,12.3,3.1,16.2l10.2,8.4c6.2,5.1,9.6,12.9,9.2,20.9v11c0.4,8-3,15.8-9.2,20.9l-10.2,8.4c-4.8,3.9-6.1,10.8-3.1,16.2
	l14.8,25.5c3.1,5.3,9.6,7.6,15.4,5.5l12.8-4.6c7.5-2.8,15.9-1.9,22.7,2.4c3,2.1,6.2,3.9,9.4,5.5c7.2,3.7,12.2,10.5,13.5,18.5
	l2.2,12.8c1,6.2,6.4,10.8,12.8,10.7h29.3c6.3,0.1,11.7-4.5,12.8-10.7l2.2-12.8c1.3-8,6.3-14.8,13.5-18.5c3.3-1.6,6.4-3.4,9.4-5.5
	c6.8-4.3,15.2-5.2,22.7-2.4l12.8,4.6c5.6,1.7,11.6-0.5,14.7-5.5l14.8-25.5C248.4,172.9,247.1,166,242.3,162.1L242.3,162.1z
	 M127.5,165.5c-21.1,0-38.3-17.1-38.3-38.3S106.4,89,127.5,89s38.3,17.1,38.3,38.3S148.6,165.5,127.5,165.5z"/>
</svg>
