<?xml version="1.0" encoding="utf-8"?>
<!-- Generator: Adobe Illustrator 22.0.1, SVG Export Plug-In . SVG Version: 6.00 Build 0)  -->
<svg version="1.1" id="Layer_1" xmlns="http://www.w3.org/2000/svg" xmlns:xlink="http://www.w3.org/1999/xlink" x="0px" y="0px"
	 viewBox="0 0 64 64" style="enable-background:new 0 0 64 64;" xml:space="preserve">
<style type="text/css">
	.st0{fill:#BFBFBF;}
</style>
<path class="st0" d="M20.1,51.8v-7.1c0-0.3-0.1-0.6-0.3-0.9c-0.2-0.2-0.5-0.3-0.9-0.3H7.1c-0.3,0-0.6,0.1-0.9,0.3
	c-0.2,0.2-0.3,0.5-0.3,0.9v7.1c0,0.3,0.1,0.6,0.3,0.9C6.5,52.9,6.8,53,7.1,53H19c0.3,0,0.6-0.1,0.9-0.3C20,52.5,20.1,52.2,20.1,51.8
	z M20.1,37.6v-7.1c0-0.3-0.1-0.6-0.3-0.9s-0.5-0.3-0.9-0.3H7.1c-0.3,0-0.6,0.1-0.9,0.3s-0.3,0.5-0.3,0.9v7.1c0,0.3,0.1,0.6,0.3,0.9
	c0.2,0.2,0.5,0.3,0.9,0.3H19c0.3,0,0.6-0.1,0.9-0.3C20,38.2,20.1,37.9,20.1,37.6z M39.1,51.8v-7.1c0-0.3-0.1-0.6-0.3-0.9
	c-0.2-0.2-0.5-0.3-0.9-0.3H26.1c-0.3,0-0.6,0.1-0.9,0.3c-0.2,0.2-0.3,0.5-0.3,0.9v7.1c0,0.3,0.1,0.6,0.3,0.9
	c0.2,0.2,0.5,0.3,0.9,0.3h11.9c0.3,0,0.6-0.1,0.9-0.3C39,52.5,39.1,52.2,39.1,51.8z M20.1,23.4v-7.1c0-0.3-0.1-0.6-0.3-0.9
	c-0.2-0.2-0.5-0.3-0.9-0.3H7.1c-0.3,0-0.6,0.1-0.9,0.3c-0.2,0.2-0.3,0.5-0.3,0.9v7.1c0,0.3,0.1,0.6,0.3,0.9s0.5,0.3,0.9,0.3H19
	c0.3,0,0.6-0.1,0.9-0.3S20.1,23.7,20.1,23.4z M39.1,37.6v-7.1c0-0.3-0.1-0.6-0.3-0.9c-0.2-0.2-0.5-0.3-0.9-0.3H26.1
	c-0.3,0-0.6,0.1-0.9,0.3s-0.3,0.5-0.3,0.9v7.1c0,0.3,0.1,0.6,0.3,0.9c0.2,0.2,0.5,0.3,0.9,0.3h11.9c0.3,0,0.6-0.1,0.9-0.3
	C39,38.2,39.1,37.9,39.1,37.6z M58.1,51.8v-7.1c0-0.3-0.1-0.6-0.3-0.9c-0.2-0.2-0.5-0.3-0.9-0.3H45c-0.3,0-0.6,0.1-0.9,0.3
	c-0.2,0.2-0.3,0.5-0.3,0.9v7.1c0,0.3,0.1,0.6,0.3,0.9c0.2,0.2,0.5,0.3,0.9,0.3h11.9c0.3,0,0.6-0.1,0.9-0.3
	C58,52.5,58.1,52.2,58.1,51.8z M39.1,23.4v-7.1c0-0.3-0.1-0.6-0.3-0.9c-0.2-0.2-0.5-0.3-0.9-0.3H26.1c-0.3,0-0.6,0.1-0.9,0.3
	c-0.2,0.2-0.3,0.5-0.3,0.9v7.1c0,0.3,0.1,0.6,0.3,0.9s0.5,0.3,0.9,0.3h11.9c0.3,0,0.6-0.1,0.9-0.3C39,24,39.1,23.7,39.1,23.4z
	 M58.1,37.6v-7.1c0-0.3-0.1-0.6-0.3-0.9c-0.2-0.2-0.5-0.3-0.9-0.3H45c-0.3,0-0.6,0.1-0.9,0.3c-0.2,0.2-0.3,0.5-0.3,0.9v7.1
	c0,0.3,0.1,0.6,0.3,0.9c0.2,0.2,0.5,0.3,0.9,0.3h11.9c0.3,0,0.6-0.1,0.9-0.3C58,38.2,58.1,37.9,58.1,37.6z M58.1,23.4v-7.1
	c0-0.3-0.1-0.6-0.3-0.9c-0.2-0.2-0.5-0.3-0.9-0.3H45c-0.3,0-0.6,0.1-0.9,0.3c-0.2,0.2-0.3,0.5-0.3,0.9v7.1c0,0.3,0.1,0.6,0.3,0.9
	c0.2,0.2,0.5,0.3,0.9,0.3h11.9c0.3,0,0.6-0.1,0.9-0.3C58,24,58.1,23.7,58.1,23.4z M62.8,11.5v40.3c0,1.6-0.6,3-1.7,4.2
	c-1.2,1.2-2.6,1.7-4.2,1.7H7.1c-1.6,0-3-0.6-4.2-1.7c-1.2-1.2-1.7-2.6-1.7-4.2V11.5c0-1.6,0.6-3,1.7-4.2s2.6-1.7,4.2-1.7h49.8
	c1.6,0,3,0.6,4.2,1.7C62.3,8.5,62.8,9.9,62.8,11.5z"/>
</svg>
