<?xml version="1.0" standalone="no"?><!DOCTYPE svg PUBLIC "-//W3C//DTD SVG 1.1//EN" "http://www.w3.org/Graphics/SVG/1.1/DTD/svg11.dtd"><svg t="1627660175775" class="icon" viewBox="0 0 1633 1024" version="1.1" xmlns="http://www.w3.org/2000/svg" p-id="6457" width="408.25" height="256" xmlns:xlink="http://www.w3.org/1999/xlink"><defs><style type="text/css"></style></defs><path d="M1419.234448 737.674555a208.397528 208.397528 0 0 1-39.769315 11.730031c-1.321884 0.257158-2.643768 0.514317-3.988211 0.708313q-7.561358 1.389557-15.167831 2.152009l-0.058651 0.02707c-1.434673 0.157904-2.950554 0.284228-4.407784 0.37897-51.472277 4.407785-100.774497-9.54644-114.615934-43.310882l-0.027069-0.05865-1.091795-3.189666c-8.350879-24.899246 3.55059-55.040913 26.058714-82.110215l0.05865-0.027069c1.236165-1.506858 2.535491-3.036273 3.834818-4.5702l0.05865-0.02707a217.005566 217.005566 0 0 1 43.865803-37.206754l3.388174-2.174568 0.05865-0.027069a209.029145 209.029145 0 0 1 30.678542-15.790426 173.401433 173.401433 0 0 1 21.434375-7.21848c1.087284-0.302274 2.201637-0.545898 3.315989-0.78501a120.458391 120.458391 0 0 1 15.420479-2.752045c1.100818-0.094743 2.179079-0.252647 3.306966-0.284228a93.763548 93.763548 0 0 1 52.424214 9.397559 31.756802 31.756802 0 0 1 3.126504 1.714389 89.685107 89.685107 0 0 1 37.97823 44.280866l1.213607 3.158085a87.880487 87.880487 0 0 1 1.380534 62.710548 30.304083 30.304083 0 0 1-1.28128 3.306966 93.94401 93.94401 0 0 1-23.739777 33.272683 42.092764 42.092764 0 0 1-2.50391 2.255775 126.039179 126.039179 0 0 1-19.941052 14.166268c-0.96096 0.609059-1.953501 1.154957-2.93702 1.705366a176.176036 176.176036 0 0 1-18.07327 8.567434z" fill="#F9DA3E" p-id="6458"></path><path d="M1438.061147 635.866912l48.377353 41.804025a30.110086 30.110086 0 0 0 1.281281-3.306966l-46.369714-40.058055a1196.652606 1196.652606 0 0 0 44.993691-22.657005l-1.213607-3.158085c-8.355391 4.51155-23.509688 12.420298-43.527437 22.052457l5.549207-66.319788a31.761314 31.761314 0 0 0-3.126504-1.714389l-5.892085 69.694428a1260.888058 1260.888058 0 0 1-45.246337 20.477926l-1.290304-99.556379c-1.127888 0.036092-2.206148 0.189485-3.306966 0.284228l1.321884 100.66622c-4.222811 1.872293-8.571945 3.654356-12.930103 5.517626l-3.807748-103.418266a61.176621 61.176621 0 0 0-3.315989 0.789521l3.825794 104.004768a1056.456183 1056.456183 0 0 1-60.860812 23.094626L1317.372667 579.991363l-3.388174 2.174567-4.836382 103.066365a841.873319 841.873319 0 0 1-48.584884 15.280621 32.194422 32.194422 0 0 1-3.446825 0.983518c-5.625903 1.592577-11.333014 3.158085-17.008544 4.619827l1.091795 3.189666a861.268473 861.268473 0 0 0 51.350465-14.98737l63.292538 58.370437c1.457231-0.099254 2.977623-0.221066 4.407784-0.37897l-64.122663-59.173493a382.308766 382.308766 0 0 0 14.089571-4.777732l0.05865-0.027069 65.200924 61.808238c1.353465-0.193997 2.666326-0.451155 3.988211-0.708313l-65.670125-62.259393a1114.966478 1114.966478 0 0 0 60.775093-23.130718l0.05865-0.02707 62.683479 65.047532c0.98803-0.545898 1.976059-1.096307 2.937019-1.705366l-62.318043-64.709165-0.05865 0.027069 0.05865-0.027069c4.430342-1.89034 8.765942-3.663379 12.993264-5.540184l69.270343 56.069546c0.90231-0.730871 1.741458-1.497835 2.50391-2.255775l-68.381567-55.257467a1216.91849 1216.91849 0 0 0 43.762037-19.796683z" fill="#FFFFFF" p-id="6459"></path><path d="M1398.833218 596.36829l-1.434673 2.70693a266.903312 266.903312 0 0 1-11.61273 19.431247c-0.52334 0.857195-1.091795 1.68732-1.664762 2.517445a281.76887 281.76887 0 0 1-30.457476 38.172227c-0.78501 0.852683-1.592577 1.624158-2.346006 2.422702-31.188347 31.648525-67.641673 50.930891-96.520106 36.647323a9.731414 9.731414 0 0 1-1.173003-0.554921 18.149967 18.149967 0 0 1-1.583554-0.90231c-29.054383-16.823571-42.54843-65.354317-39.448995-114.137709 0.031581-1.317373 0.139858-2.657303 0.275204-3.920537a189.19637 189.19637 0 0 1 14.251988-59.552463 20.698992 20.698992 0 0 1 1.353465-3.022739c1.087284-2.558049 2.300891-4.962705 3.564124-7.371873 1.100818-2.079825 2.255775-4.137092 3.455848-6.027431a25.968483 25.968483 0 0 1 1.560996-2.571584 89.843011 89.843011 0 0 1 48.129218-39.119652 28.991222 28.991222 0 0 1 3.131016-1.006076c25.427097-7.394431 53.209223-2.882881 77.472341 8.287718l2.733999 1.249699c1.506858 0.798544 3.045296 1.54295 4.552154 2.346007 26.275269 13.909109 41.628074 32.356838 43.71241 57.242549a23.509688 23.509688 0 0 1 0.193997 3.031762 85.818708 85.818708 0 0 1-1.980571 21.867484c-0.180462 0.969983-0.410551 1.912897-0.672221 2.90995a171.840437 171.840437 0 0 1-15.492663 39.354252z" fill="#78C5FD" p-id="6460"></path><path d="M1337.426508 518.571118l79.561188 13.660974a23.008906 23.008906 0 0 0-0.193997-3.031762l-77.670848-13.327119c12.181186-19.999702 22.774306-36.241283 29.401773-46.256925l-2.734-1.249699a1505.495288 1505.495288 0 0 0-29.347634 46.153159l-48.124706-54.445388a28.991222 28.991222 0 0 0-3.131016 1.006075l49.667656 56.060524a1190.034162 1190.034162 0 0 0-33.516307 58.93438l-64.298613-75.866228a25.197008 25.197008 0 0 0-1.560997 2.571583l64.40238 76.051202c-2.201637 4.164161-4.380715 8.405018-6.559794 12.632341l-64.867069-75.279727a20.698992 20.698992 0 0 0-1.353466 3.022739l64.790373 75.126334c-7.344804 14.766304-14.355753 29.776232-20.545599 44.61472l-58.478715-60.202126c-0.135347 1.258723-0.243624 2.603164-0.275204 3.920537l57.522265 59.214097a355.320673 355.320673 0 0 0-18.068758 54.919101c0.491759 0.324832 1.064726 0.631617 1.583554 0.90231a9.925411 9.925411 0 0 0 1.173003 0.554921 340.73032 340.73032 0 0 1 17.937924-55.040913l78.582181 18.407125c0.75794-0.798544 1.565508-1.570019 2.346007-2.422703l-79.822859-18.736468c6.189847-14.843 13.173727-29.934136 20.626808-44.772624l89.639992 25.327843c0.572967-0.830125 1.145934-1.66025 1.664762-2.517445l-89.951289-25.490259c2.179079-4.240857 4.358158-8.486226 6.586863-12.700014l94.981667 18.759026 1.434673-2.70693-94.950086-18.813165c7.407965-13.985806 15.041508-27.547526 22.390824-40.175355l88.060949 19.625244c0.26167-0.997053 0.491759-1.939967 0.672221-2.90995l-87.167662-19.399666c3.306966-5.598834 6.51919-10.949532 9.591556-16.119769z" fill="#FFFFFF" p-id="6461"></path><path d="M1371.380435 858.75554a132.847108 132.847108 0 0 1-50.881264 9.510348c-1.398581 0.045116-2.8513-0.036092-4.281461-0.054139a139.803919 139.803919 0 0 1-25.354912-3.23027l-0.063162 0.02707c-1.736947-0.415063-3.410732-0.857195-5.147679-1.272258-31.287601-8.301252-57.558358-27.222694-68.192081-53.452847-0.52334-1.28128-0.947426-2.526468-1.380535-3.771656a27.899427 27.899427 0 0 1-0.979006-3.334035c-7.841074-27.439248 2.747534-56.394378 24.091678-80.35071l0.063162-0.027069c1.123376-1.276769 2.21066-2.463306 3.361105-3.676914l0.063161-0.027069a161.829307 161.829307 0 0 1 48.002895-34.10732c1.127888-0.532363 2.255775-1.064726 3.410732-1.533927 1.74597-0.857195 3.473894-1.560996 5.26949-2.287356a147.911174 147.911174 0 0 1 29.902555-8.765942c1.10533-0.221066 2.206148-0.451155 3.338548-0.609059a109.675786 109.675786 0 0 1 35.397623-0.166927c1.168492 0.121812 2.368564 0.306785 3.60924 0.563943a87.072919 87.072919 0 0 1 22.075015 7.475639c1.195561 0.559432 2.355029 1.209095 3.519009 1.858759a81.550782 81.550782 0 0 1 35.745013 41.366404 17.11231 17.11231 0 0 1 0.636128 1.754993c0.451155 1.091795 0.90231 2.179079 1.236165 3.23027a100.688778 100.688778 0 0 1 3.708494 49.654122c-0.225578 1.285792-0.451155 2.571584-0.739894 3.884444a103.986721 103.986721 0 0 1-9.05017 25.553421 44.592162 44.592162 0 0 1-1.682808 3.221247 105.452975 105.452975 0 0 1-28.675413 33.141848 29.776232 29.776232 0 0 1-2.743023 2.084336 114.449006 114.449006 0 0 1-24.258605 13.340654z" fill="#61DDA0" p-id="6462"></path><path d="M1396.076661 745.452468l41.695747 35.966078c0.288739-1.312861 0.514317-2.598653 0.739894-3.884445l-39.024909-33.615561a1587.862661 1587.862661 0 0 0 35.311903-16.043072 55.871038 55.871038 0 0 0-1.236164-3.23027 1547.822653 1547.822653 0 0 1-35.505901 16.119769l-0.87524-59.241166a54.544642 54.544642 0 0 0-3.514498-1.858759l1.04668 62.611294a1525.882984 1525.882984 0 0 1-16.746875 7.317735l-6.379332-77.409179q-1.831689-0.374459-3.60924-0.563944l6.586863 79.344634c-12.785733 5.486045-26.166991 10.917952-39.796384 16.219023l-2.170056-95.392218c-1.132399 0.157904-2.255775 0.383482-3.338547 0.609059l2.079825 96.09602a950.989673 950.989673 0 0 1-34.932934 12.749641l-2.314425-97.792363c-1.154957 0.451155-2.282844 1.001564-3.410732 1.533927l2.318937 97.417904c-17.058171 5.815388-33.953927 10.931486-49.884211 14.92872-1.141422 0.315809-2.309914 0.563944-3.478405 0.812079a295.280963 295.280963 0 0 1-24.547345 5.025867l0.979006 3.334036c7.922282-1.272257 16.241581-3.009204 24.813526-5.066471l0.063162-0.027069c1.209095-0.338366 2.373075-0.591013 3.60924-0.866218a677.003227 677.003227 0 0 0 18.619168-5.089029l53.037785 72.753259c1.42565 0 2.878369 0.099254 4.281461 0.054139l-53.836329-73.83152c21.479491-6.31617 43.892872-14.220406 65.868633-22.679563l63.085007 73.660081a28.873921 28.873921 0 0 0 2.743023-2.084336l-62.408275-72.888606c13.674509-5.323629 27.141486-10.782605 39.990382-16.295719l51.097817 56.046988c0.613571-1.069237 1.159468-2.111406 1.682809-3.221247l-49.387941-54.206276a1454.212497 1454.212497 0 0 0 16.746875-7.313222z" fill="#DBFEED" p-id="6463"></path><path d="M248.690183 218.214661l42.710846 42.715358v30.326641l-42.710846-42.710846-42.706334 42.706334v-30.322129z" fill="#F3F9FF" p-id="6464"></path><path d="M248.690183 164.824976l42.710846 42.715358v30.32664l-42.710846-42.710846-42.706334 42.706335v-30.326641z" fill="#E7F4FE" p-id="6465"></path><path d="M248.690183 111.435291l42.710846 42.710846v30.32664l-42.710846-42.715357-42.706334 42.715357v-30.32664z" fill="#DCEEFD" p-id="6466"></path><path d="M248.690183 58.045605l42.710846 42.710846v30.331152l-42.710846-42.715357-42.706334 42.715357v-30.331152z" fill="#D0E7FE" p-id="6467"></path><path d="M1284.934621 73.759335v815.083733a12.65941 12.65941 0 0 1-12.654899 12.654899H362.525619A12.65941 12.65941 0 0 1 349.87072 888.843068V73.759335z" fill="#F3F9FF" p-id="6468"></path><path d="M1284.934621 21.82688v51.932455H349.87072V21.82688A21.804322 21.804322 0 0 1 371.675043 0h891.450744a21.804322 21.804322 0 0 1 21.808834 21.82688z" fill="#578EC8" p-id="6469"></path><path d="M403.079944 38.199296a13.796321 13.796321 0 1 0 27.592641 0 13.796321 13.796321 0 1 0-27.592641 0Z" fill="#FFCB01" p-id="6470"></path><path d="M452.188168 38.199296a13.796321 13.796321 0 1 0 27.592641 0 13.796321 13.796321 0 1 0-27.592641 0Z" fill="#44D690" p-id="6471"></path><path d="M349.87072 73.759335h933.259281v20.802758H349.87072z" fill="#DCEEFD" p-id="6472"></path><path d="M1202.188278 559.775106v259.865293a25.305285 25.305285 0 0 1-25.309797 25.314309H874.699358a25.305285 25.305285 0 0 1-25.309796-25.314309v-259.865293a25.305285 25.305285 0 0 1 25.309796-25.314308h302.179123a25.305285 25.305285 0 0 1 25.309797 25.314308z" fill="#DAE7FF" p-id="6473"></path><path d="M1202.188278 547.124719v259.865294a25.305285 25.305285 0 0 1-25.309797 25.314308H874.699358a25.305285 25.305285 0 0 1-25.309796-25.314308v-259.865294a25.305285 25.305285 0 0 1 25.309796-25.323331h302.179123a25.305285 25.305285 0 0 1 25.309797 25.323331z" fill="#FFFFFF" p-id="6474"></path><path d="M755.986937 836.089512h-25.309796v-7.579405h25.309796z m-50.619593 0h-25.309797v-7.579405h25.309797z m-50.619594 0h-25.314308v-7.579405h25.309797z m-50.619593 0h-25.314309v-7.579405h25.309797z m-50.619594 0h-25.314308v-7.579405h25.309796z m-50.619594 0h-25.314308v-7.579405h25.309797z m-51.431672-0.717337a28.955129 28.955129 0 0 1-20.92457-18.470287l7.137272-2.585118a21.691534 21.691534 0 0 0 15.461083 13.64744z m330.245477-8.901288l-5.598834-5.084518a21.479491 21.479491 0 0 0 5.53116-14.405379v-6.731233h7.552335v6.731233a29.04536 29.04536 0 0 1-7.466615 19.494408z m-345.318567-35.993148h-7.570381v-25.309797h7.570381z m352.803228-15.546802h-7.574892v-25.314309h7.574892z m-352.803228-35.077303h-7.570381v-25.314309h7.570381z m352.803228-15.560337h-7.574892v-25.314308h7.574892z m-352.803228-35.06828h-7.570381v-25.314308h7.570381z m352.803228-15.546802h-7.574892v-25.314308h7.574892z m-352.803228-35.077303h-7.570381v-25.291751h7.570381z m352.803228-15.546802h-7.574892v-25.309797h7.574892z m-352.803228-35.081815h-7.570381v-25.314308h7.570381z m352.803228-15.546802h-7.574892v-25.314308a21.529118 21.529118 0 0 0-4.994287-13.787298l5.828923-4.872474a29.149126 29.149126 0 0 1 6.767326 18.659772z m-351.206139-33.408029l-7.033507-2.855812a28.98671 28.98671 0 0 1 21.610326-17.662719l1.394069 7.466616a21.705068 21.705068 0 0 0-15.970888 13.051915z m318.966601-13.417351h-25.309796v-7.592939h25.309796z m-50.619593 0h-25.309797v-7.592939h25.309797z m-50.619594 0h-25.327843v-7.592939h25.309797z m-50.619593 0h-25.309797v-7.592939h25.309797z m-50.619594 0h-25.309797v-7.592939h25.309797z m-50.619593 0h-25.309797v-7.592939h25.309797z" fill="#DAE7FF" p-id="6475"></path><path d="M785.411268 176.703888v259.865293a25.305285 25.305285 0 0 1-25.309797 25.314308H457.922348a25.305285 25.305285 0 0 1-25.309796-25.314308v-259.865293a25.305285 25.305285 0 0 1 25.309796-25.309797h302.179123a25.305285 25.305285 0 0 1 25.309797 25.309797z" fill="#DAE7FF" p-id="6476"></path><path d="M783.155493 446.990862a25.296262 25.296262 0 0 1-23.058533 14.888116h-302.179123a25.31882 25.31882 0 0 1-25.309797-25.309797v-259.865293a25.296262 25.296262 0 0 1 14.888116-23.058533 25.49477 25.49477 0 0 0-2.255775 10.403634v267.476279a17.739416 17.739416 0 0 0 17.72588 17.721369h120.819316a126.066248 126.066248 0 0 1 3.315989 12.632341h96.930657c-4.985263-3.60924-13.011311-7.21848-21.082475-12.632341h109.80211a25.395516 25.395516 0 0 0 10.403635-2.255775z" fill="#C3D3F3" p-id="6477"></path><path d="M1202.188278 189.354275v259.865293a25.305285 25.305285 0 0 1-25.309797 25.314308H874.699358A25.305285 25.305285 0 0 1 849.389562 449.219568v-259.865293a25.305285 25.305285 0 0 1 25.309796-25.314309h302.179123a25.305285 25.305285 0 0 1 25.309797 25.314309z" fill="#DAE7FF" p-id="6478"></path><path d="M1202.188278 363.094074H849.394073V176.703888A25.309797 25.309797 0 0 1 874.70387 151.394091h302.174611a25.309797 25.309797 0 0 1 25.309797 25.309797z" fill="#FFFFFF" p-id="6479"></path><path d="M900.843792 320.744152a3.532544 3.532544 0 1 1 0-7.056065c10.552516 0 17.211564-10.859301 24.903757-23.42848 10.940509-17.861227 24.53381-40.076101 55.943223-40.076101 20.468903 0 32.212469 7.182388 43.581575 14.125664 11.856354 7.250061 23.067556 14.098594 44.619232 14.098595 58.397506 0 64.483587-31.689129 69.365085-57.143296 2.70693-14.166268 5.283025-27.520456 18.831211-27.520456a3.532544 3.532544 0 1 1 0 7.056065c-6.767325 0-8.639619 6.31617-11.599196 21.763718-4.804801 25.048127-12.086443 62.909056-76.5971 62.909056-23.685639 0-36.331514-7.732797-48.562327-15.203924-10.967579-6.699652-21.317075-13.024846-39.633968-13.024845-27.204648 0-39.106117 19.449293-49.627053 36.593183-8.459157 13.82339-16.467158 26.906886-31.224439 26.906886z" fill="#DCEEFD" p-id="6480"></path><path d="M900.843792 320.73964a3.532544 3.532544 0 1 1 0-7.056064c10.349496 0 17.026591-13.327119 24.763899-28.779179 10.908928-21.763718 24.47516-48.842043 56.083081-48.842043 20.874943 0 32.699716 10.827721 44.141008 21.335121 11.784169 10.827721 22.909652 21.005778 44.055288 21.005778 30.001809 0 43.762037-26.748981 55.902619-50.362435 9.474255-18.411636 17.644673-34.314851 32.298188-34.314851a3.532544 3.532544 0 1 1 0 7.056064c-10.078803 0-17.328864 14.08506-25.715837 30.389803-12.433832 24.190932-27.90845 54.287484-62.489482 54.287484-24.087167 0-37.39624-12.181186-49.135293-22.963791-10.863813-9.966014-21.145636-19.399666-39.061002-19.399666-26.988093 0-38.930167 23.830008-49.469149 44.849321-8.436599 16.886733-16.394974 32.794459-31.37332 32.794458z" fill="#7266D5" p-id="6481"></path><path d="M893.494477 317.225143a7.349315 7.056065 0 1 0 14.69863 0 7.349315 7.056065 0 1 0-14.69863 0Z" fill="#2CCD7F" p-id="6482"></path><path d="M1062.542264 281.940308a7.349315 7.056065 0 1 0 14.69863 0 7.349315 7.056065 0 1 0-14.69863 0Z" fill="#2CCD7F" p-id="6483"></path><path d="M1143.393756 197.263022a14.698631 14.112129 0 1 0 29.397261 0 14.698631 14.112129 0 1 0-29.397261 0Z" fill="#D0F4E3" p-id="6484"></path><path d="M1147.066157 197.263022a11.026229 10.584097 0 1 0 22.052458 0 11.026229 10.584097 0 1 0-22.052458 0Z" fill="#99E9C2" p-id="6485"></path><path d="M1150.743071 197.263022a7.349315 7.056065 0 1 0 14.69863 0 7.349315 7.056065 0 1 0-14.69863 0Z" fill="#2CCD7F" p-id="6486"></path><path d="M1176.878481 461.888001H874.70387a25.309797 25.309797 0 0 1-25.309797-25.314308V363.094074h352.803228v73.479619a25.309797 25.309797 0 0 1-25.31882 25.314308z" fill="#7266D5" p-id="6487"></path><path d="M921.628504 405.430461H880.063592a1.267746 1.267746 0 0 1-1.267746-1.267745V392.581566a1.267746 1.267746 0 0 1 1.267746-1.267745h41.564912a1.267746 1.267746 0 0 1 1.267746 1.267745v11.58115a1.267746 1.267746 0 0 1-1.267746 1.267745zM965.733419 433.659231H880.063592a1.267746 1.267746 0 0 1-1.267746-1.267745v-11.58115a1.267746 1.267746 0 0 1 1.267746-1.267746h85.669827a1.267746 1.267746 0 0 1 1.267746 1.267746v11.58115a1.267746 1.267746 0 0 1-1.267746 1.267745z" fill="#FFFFFF" p-id="6488"></path><path d="M210.342006 492.692866a16.133304 16.133304 0 0 0 3.965653-5.210841c0.974495-2.621211 3.189666-14.689608 9.587044-21.804322s28.134027-0.90231 27.696407 1.154957c-0.974495 4.646897-14.563284-1.506858-19.70194 8.675711-1.353465 2.70693 0.654175 6.068035 2.039221 5.707111 3.676913-0.96096 6.654537-8.982497 9.393048-8.084698 2.075313 0.681244 0.618082 14.40538-6.086082 18.718422-4.728105 3.040785-15.74531 9.131378-19.724497 15.339271s-10.457773-10.602143-7.168854-14.495611z" fill="#F1B282" p-id="6489"></path><path d="M206.759835 488.943768a2.255775 2.255775 0 0 1 3.158086 0.451155l13.891063 18.177036a2.567072 2.567072 0 0 1-0.451155 3.568636c-11.062321 8.820081-65.48064 51.65725-77.291879 50.308296l-8.756919-32.934316s51.810643-26.230153 69.450804-39.570807z" fill="#F0B701" p-id="6490"></path><path d="M533.030637 308.612593c15.957353 1.317373 25.982018 17.969505 31.413924 23.008907s8.40953 20.347092 21.835903 32.532788c13.254935 12.032304-24.538322 7.21848-24.538322 7.218481l-13.209819-16.588971s-2.431726-4.886009-13.385769 1.723413c-7.48015 4.51155-14.274545-3.60924-19.273343-13.142146a5.625903 5.625903 0 0 1-3.329524 0.387993c-2.810696-0.613571-2.540003-8.274183-2.129452-12.790245-1.939967-5.183771-3.036273-9.0231-3.036273-9.0231-0.311297-9.650206 9.695321-14.649004 25.652675-13.32712z" fill="#F1B282" p-id="6491"></path><path d="M580.239498 421.649484s-16.503251 12.212766-33.538864 25.431609c-20.40123 15.826518-37.698514 24.09619-48.13373 35.510412-2.463306 2.70693 1.624158 15.555825-3.302454 19.87789s-24.190932 7.128249-24.633065-4.71457c-0.302274-8.12079-1.86327-18.046201 7.935817-23.613454 3.60924-2.048244 23.532246-19.399666 34.193039-27.94003s39.507645-39.006863 39.507646-39.006863 21.687022-1.145934 27.971611 14.455006z" fill="#E0A277" p-id="6492"></path><path d="M568.094405 342.512382c-4.854428-0.78501-3.284409-12.555644-12.348113-12.379694-7.060576 0.139858-4.552154 4.908567-12.366159 3.261851s-5.274002-17.283749-31.828987-12.736106c-11.761611 2.016663-13.1241-10.990136-8.833615-20.16663 9.22612-19.733521 47.195327-30.227387 60.513423-9.713368 14.270033 21.962227 9.704345 52.518956 4.863451 51.733947z" fill="#102B5E" p-id="6493"></path><path d="M662.958772 449.242126h-79.168684c-2.305402-6.911695-5.314606-12.099978-10.024664-14.251988a110.429215 110.429215 0 0 0-7.263596-2.887392c-3.063343-1.087284-6.072547-2.102382-8.860685-3.365616q-1.213607-0.532363-2.355029-1.136911a27.583618 27.583618 0 0 1-3.771656-2.454283 23.460061 23.460061 0 0 1-7.038019-11.820262c-0.279716-0.90231-0.532363-1.80462-0.735382-2.761068a6.410913 6.410913 0 0 1-0.175951-0.960961 55.884573 55.884573 0 0 1 0.681244-25.133846 44.889925 44.889925 0 0 1 11.391665-20.753131 39.218906 39.218906 0 0 1 15.235505-9.519371 23.820985 23.820985 0 0 1 5.923665-1.290303 29.036337 29.036337 0 0 1 9.185517 0.532363 53.317501 53.317501 0 0 1 26.198572 15.618986 108.615572 108.615572 0 0 1 26.22113 47.822433 55.843969 55.843969 0 0 0 24.556368 32.36135z" fill="#2CCD7F" p-id="6494"></path><path d="M560.690951 280.478566s-0.451155-17.595046 24.67818-17.595046c51.093306 0 30.755238 47.623924 31.495132 72.428428s12.632341 23.067556 13.142146 31.747779-48.363818 1.736947-51.833201-31.995915-5.950735-49.27064-13.142146-46.383247-4.340111-8.201998-4.340111-8.201999z" fill="#102B5E" p-id="6495"></path><path d="M549.926392 274.063142c-7.155319 3.40622 9.393048 33.173429 19.426735 29.284472s-10.096849-33.723838-19.426735-29.284472z" fill="#2CCD7F" p-id="6496"></path><path d="M496.942746 552.606253l-298.781925 45.147083a25.309797 25.309797 0 0 1-28.806248-21.249401l-38.830913-256.955344a25.314308 25.314308 0 0 1 21.24489-28.81076l298.786437-45.156106a25.309797 25.309797 0 0 1 28.806248 21.249402l38.826401 256.964366a25.314308 25.314308 0 0 1-21.24489 28.81076z" fill="#1B90FB" p-id="6497"></path><path d="M284.002087 352.270865l24.443579-3.69496 4.953682 32.817017-24.439067 3.690448z" fill="#9FD1FD" p-id="6498"></path><path d="M288.955769 385.08337l24.443579-3.69496 17.351422 114.850534-24.443579 3.690448z" fill="#1277D7" p-id="6499"></path><path d="M247.34123 357.811049l24.443579-3.69496 9.911876 65.629521-24.439068 3.69496z" fill="#9FD1FD" p-id="6500"></path><path d="M257.253106 423.44057l24.443579-3.69496 12.393228 82.03803-24.443579 3.694959z" fill="#1277D7" p-id="6501"></path><path d="M210.680373 363.351232l24.443579-3.694959 14.870069 98.442026-24.439067 3.699471z" fill="#9FD1FD" p-id="6502"></path><path d="M225.550442 461.793258l24.443579-3.694959 7.435035 49.221013-24.443579 3.699471z" fill="#1277D7" p-id="6503"></path><path d="M391.286751 336.056353l24.44358-3.694959 22.314127 147.658527-24.448091 3.69496z" fill="#FFFFFF" p-id="6504"></path><path d="M391.286751 336.056353l24.44358-3.694959 22.314127 147.658527-24.448091 3.69496zM354.630406 341.596537l24.443579-3.694959 2.003128 13.263957-24.443579 3.69496z" fill="#9FD1FD" p-id="6505"></path><path d="M356.629023 354.860495l24.443579-3.69496 20.301976 134.403593-24.439068 3.69496z" fill="#1277D7" p-id="6506"></path><path d="M317.969549 347.136721l24.443579-3.69496 4.019791 26.618147-24.443579 3.694959z" fill="#9FD1FD" p-id="6507"></path><path d="M321.98934 373.754867l24.443579-3.694959 18.285313 121.044892-24.439067 3.699471z" fill="#1277D7" p-id="6508"></path><path d="M173.387898 898.222581l3.063343 14.270034s4.27695 7.006438-8.174929 8.071163-13.552697-4.583735-13.552697-4.583735-3.640821-17.143891-3.49194-18.371032 22.156223 0.613571 22.156223 0.61357z" fill="#F1B282" p-id="6509"></path><path d="M176.252733 908.517939a3.902491 3.902491 0 0 1 4.908566-0.708313c5.594322 3.37464 17.495792 10.529958 18.21764 10.800651 6.31617 2.368564 23.243507 6.08157 23.234484 12.451879 0 6.677094-49.022505 4.854428-66.960429 3.965652a6.89816 6.89816 0 0 1-6.559794-6.798906l-0.189485-14.757281a2.102382 2.102382 0 0 1 3.131016-1.86327 29.478469 29.478469 0 0 0 11.942074 4.060395c4.777732 0.207531 9.623137-4.240857 12.275928-7.150807z" fill="#102B5E" p-id="6510"></path><path d="M42.602569 836.680525l-10.65177 9.975037s-4.913078 6.442494-12.235324-3.676913-1.777551-13.142146-1.777551-13.142146 12.826337-11.96012 13.945201-12.451879 10.719443 19.2959 10.719444 19.295901z" fill="#F1B282" p-id="6511"></path><path d="M34.143412 845.649487a3.907002 3.907002 0 0 1 3.158085 3.839329c0 6.537236 0 20.423788 0.130835 21.177217 1.236165 6.645513 6.767325 23.058533 1.299327 26.329407-5.725157 3.428778-29.415307-39.52118-37.897022-55.356722a6.89816 6.89816 0 0 1 2.449772-9.122354l12.555644-7.759867a2.106894 2.106894 0 0 1 3.212224 1.723413 29.433354 29.433354 0 0 0 2.675349 12.325555c2.237729 4.186719 8.553899 6.063524 12.415786 6.844022z" fill="#102B5E" p-id="6512"></path><path d="M150.266203 670.032882s24.59246 49.627053 29.144615 74.693226c4.448389 24.466137-82.935828 79.890531-134.07425 97.341208a4.579223 4.579223 0 0 1-5.463487-2.075313l-11.084879-20.347092a4.985263 4.985263 0 0 1 1.6016-6.618444l93.014631-76.953512-22.314127-66.040073h49.175897z" fill="#0B224E" p-id="6513"></path><path d="M76.042179 657.27873c-0.90231 30.516126 29.036337 96.99833 32.032007 126.612145 2.598653 25.544397 35.835243 103.83784 40.536279 119.677893a4.51155 4.51155 0 0 0 5.183771 3.135528l20.117002-4.389739a5.278514 5.278514 0 0 0 4.060395-6.641001c-4.574712-16.002469-19.169577-83.359914-21.790787-97.205862-3.185154-16.85064 1.353465-89.292602-8.197487-123.878146s-71.94118-17.310818-71.94118-17.310818z" fill="#224380" p-id="6514"></path><path d="M203.141572 596.219409a119.650824 119.650824 0 0 1 19.850821-14.98737c7.141784-3.338547 15.10467-6.496632 15.898703-4.669454s-13.083496 12.632341-13.083495 12.63234a14.40538 14.40538 0 0 0 12.866941-0.771475c6.654537-3.839329 11.301433-5.738692 12.433832-4.565689s-13.715113 19.589151-22.359243 21.041871a240.258096 240.258096 0 0 0-24.836084 6.735744zM163.115099 466.927403c2.743023 7.038018-0.162416 10.137453 0.248135 12.97973a60.310403 60.310403 0 0 1 2.675349 11.472872c-0.451155 2.580607-4.434854 2.255775-6.072547 5.467999s-0.451155 7.913259-4.222811 10.917951-14.960301 0.284228-15.095647 3.767145a110.18108 110.18108 0 0 0 4.060396 17.216075l-32.226004-4.872474s6.207893-17.915366 5.621392-25.855694 0.721848-36.507464 11.242783-38.230877 30.859004-0.329343 33.768954 7.137273z" fill="#F1B282" p-id="6515"></path><path d="M136.357094 444.68546c15.646056 1.6016 23.139741 1.078261 23.712708-4.51155 4.940148 0.509805 12.767687 9.636671 11.730031 19.738032-2.282844 22.327662-30.931188 9.740437-32.198934 22.138177 0 0.036092 1.114353 16.097211 4.741639 18.781584s12.181186-4.39425 15.465594-4.200254c2.679861 0.157904 11.120971 26.852747-8.571945 24.840596s-12.533087-40.012939-24.587949-41.244592c-6.122174-0.627105-2.643768 25.169939-11.05781 24.308232-7.723774-0.789521-15.48364-11.964631-13.412838-32.189911 2.255775-22.038923 20.301976-29.081453 34.179504-27.660314z" fill="#0B224E" p-id="6516"></path><path d="M100.634639 675.49637c-19.128973-2.733999-28.815271 1.326396-33.385471-19.169577s11.05781-45.047829 14.242964-65.994957c5.919154-52.830253 27.321948-76.971558 34.608102-78.338558 4.746151-0.90231 16.241581 6.040966 23.699173 10.981113a26.491823 26.491823 0 0 1 10.236707 12.848895c13.178238 35.717943-0.225578 65.083624-0.225577 84.596078 0 6.34324 6.622956 44.086869 8.161394 49.627053 2.643768 9.514859-38.460966 8.14786-57.337292 5.449953z" fill="#F9DA3E" p-id="6517"></path><path d="M153.857397 648.562415c-16.173908-4.060395-47.00133-13.313585-53.786701-26.500846-9.316351-18.07327 14.554261-60.2698 14.554261-60.2698-7.21848 33.462168-3.821283 70.294464 22.855513 72.017877a95.144083 95.144083 0 0 0 13.534651-0.252647c0.252647 0.938402 0.505294 1.872293 0.78501 2.810696z" fill="#F0B701" p-id="6518"></path><path d="M214.97988 619.24185c-1.290303 1.073749-67.483768 24.060097-90.077612 11.152552s-11.549569-68.607144-11.549568-68.607144l31.337227 5.562741-0.848171 30.520637s38.397804-1.466254 52.758068-5.219863a5.174748 5.174748 0 0 1 5.734181 2.309914c4.434854 7.232015 13.958736 23.19388 12.645875 24.281163z" fill="#F9DA3E" p-id="6519"></path><path d="M684.041246 461.878978h-96.948703a126.057225 126.057225 0 0 0-3.31599-12.632341h79.168684c8.084698 5.418372 16.106234 9.009566 21.096009 12.632341zM543.736545 410.569117a26.013599 26.013599 0 0 0 7.782424 14.585842c6.000362 4.705547 14.360264 6.253009 22.241943 9.853226 10.719443-10.277311 8.513295-39.836989 8.513295-39.836989-14.206872-6.749279-28.503974 4.150626-38.537662 15.397921z" fill="#1EAF69" p-id="6520"></path><path d="M567.106375 419.348594s-17.937924 9.984061-36.543556 20.8975c-22.273523 13.083496-40.491163 19.03423-52.306914 29.009268-2.788138 2.355029-5.274002 19.142508-10.714932 22.792352s-26.983582-0.64064-19.981656-10.205126c14.048967-19.183112-2.521957-5.490557-3.180642-7.168854-2.255775-5.752227 7.669635-13.340654 15.131739-16.381439 3.843841-1.565508 25.833137-16.200977 37.504517-23.297645s44.213192-33.588491 44.213192-33.588491 21.655441 1.673785 25.878252 17.942435z" fill="#F1B282" p-id="6521"></path><path d="M562.170739 366.856707c-14.391845 0.586502-22.760771 32.307211-29.505538 37.684979s19.431247 27.222694 22.914164 25.418074c8.161394-4.227323 24.691714-19.850821 27.971611-32.853109s-10.899905-30.678542-21.380237-30.249944z" fill="#2CCD7F" p-id="6522"></path><path d="M479.780809 850.066294H327.195669s-1.362488 85.868336 76.303849 85.868336 76.281291-85.868336 76.281291-85.868336z" fill="#C3D3F3" p-id="6523"></path><path d="M327.191157 850.066294a76.294826 24.524787 0 1 0 152.589652 0 76.294826 24.524787 0 1 0-152.589652 0Z" fill="#DAE7FF" p-id="6524"></path><path d="M403.481472 858.926979S345.490005 763.769361 367.032657 683.03517a368.995182 368.995182 0 0 1 36.448815 175.891809zM403.485983 858.908933s5.116098-111.313479 68.124409-166.191976a369.044809 369.044809 0 0 1-68.124409 166.191976z" fill="#2CCD7F" p-id="6525"></path><path d="M403.485983 869.389264s-25.75644-108.412552 19.674871-178.535577a369.013228 369.013228 0 0 1-19.674871 178.535577z" fill="#1EAF69" p-id="6526"></path></svg>