<?xml version="1.0" encoding="utf-8"?>
<!-- Generator: Adobe Illustrator 22.1.0, SVG Export Plug-In . SVG Version: 6.00 Build 0)  -->
<svg version="1.1" id="Layer_1" xmlns="http://www.w3.org/2000/svg" xmlns:xlink="http://www.w3.org/1999/xlink" x="0px" y="0px"
	 viewBox="0 0 64 64" style="enable-background:new 0 0 64 64;" xml:space="preserve">
<style type="text/css">
	.st0{fill:#BBBBBB;stroke:#BBBBBB;stroke-miterlimit:10;}
</style>
<path class="st0" d="M38.9,20.8H28.3c-1.8,0-3.3,1.4-3.4,3.2c-1.8,0.1-3.2,1.6-3.2,3.4V38c0,1.9,1.5,3.4,3.4,3.4h10.6
	c1.8,0,3.3-1.4,3.4-3.2c1.8-0.1,3.2-1.6,3.2-3.4V24.2C42.3,22.3,40.8,20.8,38.9,20.8z M37.8,38c0,1.2-0.9,2.1-2.1,2.1H25.1
	C24,40.1,23,39.1,23,38V27.4c0-1.2,0.9-2.1,2.1-2.1h10.6c1.2,0,2.1,0.9,2.1,2.1C37.8,27.4,37.8,38,37.8,38z M41,34.8
	c0,1.1-0.8,2-1.9,2.1v-9.5c0-1.9-1.5-3.4-3.4-3.4h-9.5c0.1-1.1,1-1.9,2.1-1.9h10.6c1.2,0,2.1,0.9,2.1,2.1C41,24.2,41,34.8,41,34.8z"
	/>
</svg>
