<?xml version="1.0" standalone="no"?><!DOCTYPE svg PUBLIC "-//W3C//DTD SVG 1.1//EN" "http://www.w3.org/Graphics/SVG/1.1/DTD/svg11.dtd"><svg t="1623581841179" class="icon" viewBox="0 0 1024 1024" version="1.1" xmlns="http://www.w3.org/2000/svg" p-id="4247" xmlns:xlink="http://www.w3.org/1999/xlink" width="64" height="64"><defs><style type="text/css"></style></defs><path d="M512 42.666667C307.2 42.666667 85.333333 98.133333 85.333333 213.333333v597.333334c0 115.2 221.866667 170.666667 426.666667 170.666666s426.666667-55.466667 426.666667-170.666666V213.333333c0-115.2-221.866667-170.666667-426.666667-170.666666z m341.333333 469.333333c0 21.333333-106.666667 85.333333-341.333333 85.333333s-341.333333-64-341.333333-85.333333V320C251.733333 362.666667 384 384 512 384s260.266667-21.333333 341.333333-64V512z m-341.333333-384c221.866667 0 341.333333 64 341.333333 85.333333s-119.466667 85.333333-341.333333 85.333334-341.333333-64-341.333333-85.333334 119.466667-85.333333 341.333333-85.333333z m0 768c-234.666667 0-341.333333-64-341.333333-85.333333v-192c81.066667 42.666667 213.333333 64 341.333333 64s260.266667-21.333333 341.333333-64V810.666667c0 21.333333-106.666667 85.333333-341.333333 85.333333z" p-id="4248" fill="#666666"></path></svg>