<?xml version="1.0" standalone="no"?><!DOCTYPE svg PUBLIC "-//W3C//DTD SVG 1.1//EN" "http://www.w3.org/Graphics/SVG/1.1/DTD/svg11.dtd"><svg t="1632159517746" class="icon" viewBox="0 0 1024 1024" version="1.1" xmlns="http://www.w3.org/2000/svg" p-id="5844" xmlns:xlink="http://www.w3.org/1999/xlink" width="256" height="256"><defs><style type="text/css"></style></defs><path d="M512 0C229.1712 0 0 71.68 0 160.03072v128c0 88.35072 229.1712 159.98976 512 159.98976 282.78784 0 512-71.68 512-159.98976V160.03072C1024 71.68 794.70592 0 512 0z m0 544.07168C229.1712 544.07168 0 472.2688 0 384v192.02048c0 88.35072 229.1712 159.98976 512 159.98976 282.78784 0 512-71.68 512-159.98976V384.08192c0 88.30976-229.25312 159.98976-512 159.98976z m0 287.9488c-282.8288 0-512-71.68-512-159.9488v191.8976C0 952.36096 229.1712 1024 512 1024c282.78784 0 512-71.68 512-160.03072v-191.8976c0 88.35072-229.25312 159.98976-512 159.98976z" p-id="5845" fill="#8ba74f"></path></svg>