<?xml version="1.0" standalone="no"?><!DOCTYPE svg PUBLIC "-//W3C//DTD SVG 1.1//EN" "http://www.w3.org/Graphics/SVG/1.1/DTD/svg11.dtd"><svg t="1632158837034" class="icon" viewBox="0 0 1024 1024" version="1.1" xmlns="http://www.w3.org/2000/svg" p-id="4907" xmlns:xlink="http://www.w3.org/1999/xlink" width="256" height="256"><defs><style type="text/css"></style></defs><path d="M852.992 0v384a41.984 41.984 0 0 1-41.984 43.008H212.992a41.984 41.984 0 0 1-41.984-43.008V0A171.008 171.008 0 0 0 0 171.008v681.984A171.008 171.008 0 0 0 171.008 1024h681.984A171.008 171.008 0 0 0 1024 852.992V171.008A171.008 171.008 0 0 0 852.992 0z" p-id="4908" fill="#8ba74f"></path><path d="M256 0v340.992h512V0z m427.008 212.992a43.008 43.008 0 0 1-86.016 0v-84.992a43.008 43.008 0 0 1 86.016 0z" p-id="4909" fill="#8ba74f"></path></svg>