<?xml version="1.0" encoding="utf-8"?>
<!-- Generator: Adobe Illustrator 22.0.1, SVG Export Plug-In . SVG Version: 6.00 Build 0)  -->
<svg version="1.1" id="Layer_1" xmlns="http://www.w3.org/2000/svg" xmlns:xlink="http://www.w3.org/1999/xlink" x="0px" y="0px"
	 viewBox="0 0 550 550" style="enable-background:new 0 0 550 550;" xml:space="preserve">
<style type="text/css">
	.st0{fill:#777777;stroke:#777777;stroke-width:5;stroke-miterlimit:10;}
	.st1{fill:#777777;stroke:#777777;stroke-width:3;stroke-miterlimit:10;}
</style>
<path class="st0" d="M436.1,19H24.2v512h501.6V108.7L436.1,19z M389.9,39.9v146.3H139.2V39.9H389.9z M118.3,510.1V311.6h303v198.5
	L118.3,510.1L118.3,510.1z M504.9,510.1h-62.7V290.7H97.4v219.4H45.1V39.9h73.1v167.2h292.6V39.9h16.6l77.5,77.5V510.1L504.9,510.1z
	"/>
<path class="st1" d="M160.1,363.8h73.1c5.8,0,10.5-4.7,10.5-10.4s-4.7-10.5-10.4-10.5c0,0,0,0,0,0h-73.1c-5.8,0-10.5,4.7-10.5,10.4
	S154.3,363.8,160.1,363.8C160,363.8,160.1,363.8,160.1,363.8z M264.6,384.7H160.1c-5.8,0-10.5,4.7-10.5,10.4s4.7,10.5,10.4,10.5
	c0,0,0,0,0,0h104.5c5.8,0,10.5-4.7,10.5-10.4C275,389.4,270.3,384.7,264.6,384.7C264.6,384.7,264.6,384.7,264.6,384.7z M288.5,387.7
	c-1.9,2-3,4.7-3,7.4s1.1,5.4,3,7.4c2,1.9,4.6,3,7.4,3c2.7,0,5.4-1.1,7.4-3c1.9-2,3-4.7,3-7.4s-1.1-5.4-3-7.4
	C299.5,383.9,292.3,383.9,288.5,387.7L288.5,387.7z M369,60.8h-62.7v104.5H369V60.8z M348.1,144.4h-20.9V81.7h20.9V144.4z"/>
</svg>
