<?xml version="1.0" encoding="utf-8"?>
<!-- Generator: Adobe Illustrator 22.1.0, SVG Export Plug-In . SVG Version: 6.00 Build 0)  -->
<svg version="1.1" id="Layer_1" xmlns="http://www.w3.org/2000/svg" xmlns:xlink="http://www.w3.org/1999/xlink" x="0px" y="0px"
	 viewBox="0 0 71.9 64" style="enable-background:new 0 0 71.9 64;" xml:space="preserve">
<style type="text/css">
	.st0{fill:#499C54;}
</style>
<path class="st0" d="M71.4,24.2l-2.8-2.8c-0.8-0.8-2-0.8-2.8,0l-1.4,1.4l-3.6-3.6c0.7-2.7,0-5.6-2-7.7L53,5.9
	C45.2-2,32.6-2,24.7,5.9l11.3,5.7v2.3c0,2.1,0.8,4.2,2.3,5.7l6.1,6.1c2.1,2.1,5,2.7,7.7,2l3.6,3.6l-1.4,1.4c-0.8,0.8-0.8,2,0,2.8
	l2.8,2.8c0.8,0.8,2,0.8,2.8,0l11.3-11.3C72.2,26.3,72.2,25,71.4,24.2L71.4,24.2z M35.6,22.3c-0.5-0.5-0.9-1-1.2-1.5L2.5,50.6
	c-3.2,3-3.3,8-0.2,11.1s8.1,3,11.1-0.2l29.8-31.9c-0.5-0.4-1-0.7-1.4-1.2L35.6,22.3z"/>
</svg>
