<?xml version="1.0" standalone="no"?><!DOCTYPE svg PUBLIC "-//W3C//DTD SVG 1.1//EN" "http://www.w3.org/Graphics/SVG/1.1/DTD/svg11.dtd"><svg t="1582656739048" class="icon" viewBox="0 0 1151 1024" version="1.1" xmlns="http://www.w3.org/2000/svg" p-id="5277" xmlns:xlink="http://www.w3.org/1999/xlink" width="71.9375" height="64"><defs><style type="text/css"></style></defs><path d="M1142.608482 387.876485l-45.258939-45.25994c-12.499983-12.499983-32.759956-12.499983-45.25994 0l-22.61997 22.61997-57.798924-57.799923c11.259985-42.619943 0.719999-89.798881-32.699956-123.218837L848.471873 93.719876C723.513039-31.239959 520.895308-31.239959 395.916474 93.719876l181.01776 90.499879v37.499951c0 33.938955 13.479982 66.498912 37.49995 90.497879l98.279869 98.27987c33.418956 33.419956 80.598893 43.959942 123.217837 32.699956l57.799923 57.798924-22.61997 22.61997c-12.499983 12.499983-12.499983 32.759956 0 45.259939l45.25994 45.25894c12.499983 12.499983 32.759956 12.499983 45.25994 0l181.017759-181.018759c12.459983-12.479983 12.459983-32.739957-0.04-45.23994z m-573.434238-30.39996c-7.39999-7.39999-13.679982-15.579979-19.699974-23.899968L39.279948 809.911924c-51.139932 47.759937-52.51993 128.379829-3.059996 177.858764s130.098827 48.099936 177.857764-3.059996l476.255367-510.135322c-7.919989-5.819992-15.799979-11.739984-22.879969-18.819975l-98.27887-98.27887z" p-id="5278" fill="#38b148"></path></svg>