<?xml version="1.0" encoding="utf-8"?>
<!-- Generator: Adobe Illustrator 22.1.0, SVG Export Plug-In . SVG Version: 6.00 Build 0)  -->
<svg version="1.1" id="Layer_1" xmlns="http://www.w3.org/2000/svg" xmlns:xlink="http://www.w3.org/1999/xlink" x="0px" y="0px"
	 viewBox="0 0 64 64" style="enable-background:new 0 0 64 64;" xml:space="preserve">
<style type="text/css">
	.st0{fill:#87939A;}
</style>
<path class="st0" d="M57.2,54.1V16.2H6.8v37.8H57.2 M57.2,3.6c3.5,0,6.3,2.8,6.3,6.3v44.1c0,3.5-2.8,6.3-6.3,6.3H6.8
	c-3.5,0-6.3-2.8-6.3-6.3V9.9c0-3.5,2.8-6.3,6.3-6.3H57.2 M35.2,47.8v-6.3h15.8v6.3H35.2 M24.4,35.2L11.7,22.5h8.9l10.4,10.4
	c1.2,1.2,1.2,3.2,0,4.5L20.7,47.8h-8.9L24.4,35.2z"/>
</svg>
