<?xml version="1.0" encoding="utf-8"?>
<!-- Generator: Adobe Illustrator 22.1.0, SVG Export Plug-In . SVG Version: 6.00 Build 0)  -->
<svg version="1.1" id="Layer_1" xmlns="http://www.w3.org/2000/svg" xmlns:xlink="http://www.w3.org/1999/xlink" x="0px" y="0px"
	 viewBox="0 0 100 100" style="enable-background:new 0 0 100 100;" xml:space="preserve">
<style type="text/css">
	.st0{display:none;fill:#10A9F5;}
	.st1{fill:#FF4200;}
	.st2{fill:#10A9F5;}
	.st3{fill:#37AA5D;}
	.st4{display:none;fill:#38B148;}
	.st5{fill:none;}
	.st6{display:none;fill:#37AA5D;}
	.st7{fill:#FFFFFF;}
	.st8{font-family:'Consolas-Bold';}
	.st9{font-size:48px;}
</style>
<path class="st0" d="M90.6,77.1H9.4c-2.8,0-5-2.3-5-5V5c0-2.8,2.3-5,5-5h81.3c2.8,0,5,2.3,5,5v67.1C95.6,74.9,93.4,77.1,90.6,77.1z"
	/>
<path class="st0" d="M50.8,112.2l-67.7-44.9c-2.3-1.5-2.9-4.6-1.4-6.9L18.8,4.4c1.5-2.3,4.6-2.9,6.9-1.4L93.4,48
	c2.3,1.5,2.9,4.6,1.4,6.9l-37.1,55.9C56.2,113.1,53,113.8,50.8,112.2z"/>
<circle class="st1" cx="20.9" cy="23.7" r="19.7"/>
<path class="st2" d="M20.7,24.9L76.8,4.5c2.6-0.9,5.5,0.4,6.4,3L96.9,45c0.9,2.6-0.4,5.5-3,6.4L37.8,71.9c-2.6,0.9-5.5-0.4-6.4-3
	L17.7,31.3C16.8,28.7,18.1,25.9,20.7,24.9z"/>
<path class="st3" d="M95,100H5c-2.8,0-5-2.3-5-5V43.4c0-2.8,2.3-5,5-5h90c2.8,0,5,2.3,5,5V95C100,97.8,97.8,100,95,100z"/>
<rect x="15.8" y="56" width="69.3" height="12.1"/>
<path class="st4" d="M46.2,56.8c-5.8,0-10.6,1.6-10.6,3.5v2.8c0,2,4.7,3.5,10.6,3.5s10.6-1.6,10.6-3.5v-2.8
	C56.7,58.5,52.1,56.8,46.2,56.8z M46.2,68.9c-5.8,0-10.6-1.6-10.6-3.5v4.2c0,2,4.7,3.5,10.6,3.5s10.6-1.6,10.6-3.5v-4.2
	C56.7,67.3,52.1,68.9,46.2,68.9L46.2,68.9z M46.2,75.2c-5.8,0-10.6-1.6-10.6-3.5v4.2c0,2,4.7,3.5,10.6,3.5s10.6-1.6,10.6-3.5v-4.2
	C56.7,73.7,52.1,75.2,46.2,75.2L46.2,75.2z"/>
<rect y="43.3" class="st3" width="100" height="9.6"/>
<rect x="28.8" y="45" class="st5" width="80.3" height="42.7"/>
<polyline class="st2" points="27.9,29.1 52.1,21 55.1,30 30,38.4 "/>
<rect x="38.3" y="16.9" transform="matrix(-0.1682 -0.9857 0.9857 -0.1682 27.2024 73.2512)" class="st2" width="12.3" height="16.4"/>
<rect x="43.8" y="28" transform="matrix(0.9478 -0.3189 0.3189 0.9478 -7.2256 17.5536)" class="st2" width="12.4" height="5.7"/>
<path class="st6" d="M95,18.7H5c-2.8,0-5-2.3-5-5V5c0-2.8,2.3-5,5-5h90c2.8,0,5,2.3,5,5v8.7C100,16.5,97.8,18.7,95,18.7z"/>
<path d="M24.5,12.2h-6.5l-3.2,6.5h13L24.5,12.2z M86.5,36.1l-14-9.4c-1.6-0.9-3.9-1.3-5.5-0.6L30,38.4l-2.3-13.3H14.8l-3.2,19.5V90
	h77.8V41.7C89.4,39.4,88.3,37.5,86.5,36.1z M34.2,64.1h-6.4c-2,0-3.2-1.3-3.2-3.2s1.3-3.3,3.2-3.3h6.5c2,0,3.2,1.3,3.2,3.2
	C37.5,62.7,36.1,64.1,34.2,64.1z M53.6,64.1h-6.5c-2,0-3.2-1.3-3.2-3.2s1.3-3.2,3.2-3.2h6.5c2,0,3.2,1.3,3.2,3.2
	S55.6,64.1,53.6,64.1z M73.1,64.1h-6.5c-2,0-3.2-1.3-3.2-3.2s1.3-3.3,3.3-3.3h6.5c2,0,3.2,1.3,3.2,3.2
	C76.4,62.7,75.1,64.1,73.1,64.1z"/>
<rect y="9.7" class="st6" width="100" height="15.4"/>
<text transform="matrix(1 0 0 1 24.9167 78.5706)" class="st7 st8 st9">IC</text>
<rect x="11.6" y="9.9" class="st1" width="17.2" height="9.4"/>
</svg>
