<?xml version="1.0" encoding="utf-8"?>
<!-- Generator: Adobe Illustrator 22.1.0, SVG Export Plug-In . SVG Version: 6.00 Build 0)  -->
<svg version="1.1" id="Layer_1" xmlns="http://www.w3.org/2000/svg" xmlns:xlink="http://www.w3.org/1999/xlink" x="0px" y="0px"
	 viewBox="0 0 69.8 64" style="enable-background:new 0 0 69.8 64;" xml:space="preserve">
<style type="text/css">
	.st0{fill:#499C54;}
</style>
<path class="st0" d="M8.7,64C3.9,64,0,60.1,0,55.3c0-3.7,2.3-7,5.8-8.2V11.6C5.8,5.2,11,0,17.5,0c0,0,0,0,0,0h34.9
	C58.8,0,64,5.2,64,11.6V47c3.5,1.2,5.8,4.5,5.8,8.2c0,4.8-3.9,8.7-8.7,8.7L8.7,64z M58.2,46.5V11.6c0-3.2-2.6-5.8-5.8-5.8
	c0,0,0,0,0,0H17.5c-3.2,0-5.8,2.6-5.8,5.8c0,0,0,0,0,0v34.9L58.2,46.5z M20.4,34.9c-1.6,0-2.9-1.3-2.9-2.9c0,0,0,0,0,0
	c0-1.6,1.3-2.9,2.9-2.9h29.1c1.6,0,2.9,1.3,2.9,2.9c0,1.6-1.3,2.9-2.9,2.9c0,0,0,0,0,0H20.4z M20.4,23.3c-1.6,0-2.9-1.3-2.9-2.9
	c0,0,0,0,0,0c0-1.6,1.3-2.9,2.9-2.9c0,0,0,0,0,0h29.1c1.6,0,2.9,1.3,2.9,2.9c0,0,0,0,0,0c0,1.6-1.3,2.9-2.9,2.9L20.4,23.3z"/>
</svg>
