<?xml version="1.0" encoding="utf-8"?>
<!-- Generator: Adobe Illustrator 22.1.0, SVG Export Plug-In . SVG Version: 6.00 Build 0)  -->
<svg version="1.1" id="Layer" xmlns="http://www.w3.org/2000/svg" xmlns:xlink="http://www.w3.org/1999/xlink" x="0px" y="0px"
	 viewBox="0 0 100 100" style="enable-background:new 0 0 100 100;" xml:space="preserve">
<style type="text/css">
	.st0{fill:#37AA5D;}
	.st1{fill:#FF4200;}
	.st2{fill:#10A9F5;}
	.st3{fill:#FFFFFF;}
	.st4{font-family:'Consolas-Bold';}
	.st5{font-size:48px;}
</style>
<path class="st0" d="M3.8,35.3l83-12.7c2-0.3,3.8,1.1,4.1,3l8.7,56.9c0.3,2-1.1,3.8-3,4.1l-83,12.7c-2,0.3-3.8-1.1-4.1-3L0.8,39.4
	C0.5,37.5,1.8,35.6,3.8,35.3z"/>
<circle class="st1" cx="24.5" cy="24.5" r="24"/>
<path class="st2" d="M16,23.6L77.7,1.1c2.6-0.9,5.5,0.4,6.4,3l14.7,40.3c0.9,2.6-0.4,5.5-3,6.4L34.1,73.2c-2.6,0.9-5.5-0.4-6.4-3
	L13,30C12.1,27.4,13.4,24.5,16,23.6z"/>
<path d="M82.7,36.1l-12.5-8.4c-1.5-0.8-3.5-1.2-4.9-0.6l-33,11l-2-11.8H18.7l-2.9,17.4v40.6h69.5V41.1
	C85.3,39.1,84.4,37.3,82.7,36.1z"/>
<text transform="matrix(1 0 0 1 22.5833 75.6544)" class="st3 st4 st5">IC</text>
</svg>
