<?xml version="1.0" encoding="utf-8"?>
<!-- Generator: Adobe Illustrator 22.1.0, SVG Export Plug-In . SVG Version: 6.00 Build 0)  -->
<svg version="1.1" id="Layer_1" xmlns="http://www.w3.org/2000/svg" xmlns:xlink="http://www.w3.org/1999/xlink" x="0px" y="0px"
	 viewBox="0 0 64 64" style="enable-background:new 0 0 64 64;" xml:space="preserve">
<style type="text/css">
	.st0{fill:#87939A;}
</style>
<path class="st0" d="M45.1,21.7h13.1c1.1,0,2.1,0.9,2.1,2.1v34.3c0,1.1-0.9,2.1-2.1,2.1H45.2l0-4.6l0,0c3.8-2.2,5.2-7.1,3-10.9
	s-7.1-5.2-10.9-3c-3.8,2.2-5.2,7.1-3,10.9c0.7,1.3,1.8,2.3,3,3l0,0v4.6H23.9c-1.1,0-2.1-0.9-2.1-2.1V44.8h-3.9l0,0
	c-2.3,3.8-7.2,5-11,2.8C4.5,46.1,3,43.5,3,40.6c0-4.4,3.6-8,8-8c2.8,0,5.4,1.5,6.9,3.9l0,0h3.9V23.8c0-1.1,0.9-2.1,2.1-2.1h12.8v-4
	c-2.6-1.3-4.2-3.9-4.2-7c0-4.4,3.6-8,8-8s8,3.6,8,8c0,2.8-1.2,5.6-3.4,7L45.1,21.7L45.1,21.7z"/>
</svg>
