<?xml version="1.0" encoding="utf-8"?>
<!-- Generator: Adobe Illustrator 22.1.0, SVG Export Plug-In . SVG Version: 6.00 Build 0)  -->
<svg version="1.1" id="Layer_1" xmlns="http://www.w3.org/2000/svg" xmlns:xlink="http://www.w3.org/1999/xlink" x="0px" y="0px"
	 viewBox="0 0 71.3 64" style="enable-background:new 0 0 71.3 64;" xml:space="preserve">
<style type="text/css">
	.st0{fill:#579242;}
</style>
<path class="st0" d="M70.4,28.2l-14-24.3C55.1,1.7,52.1,0,49.7,0H21.6c-2.4,0-5.4,1.7-6.7,3.8l-14,24.3c-1.2,2.1-1.2,5.6,0,7.7
	l14,24.3c1.2,2.1,4.2,3.8,6.7,3.8h28.1c2.4,0,5.4-1.7,6.7-3.8l14-24.3C71.6,33.7,71.6,30.3,70.4,28.2z M32.6,13.4
	c-0.1-1.6,1.2-2.9,2.8-3s2.9,1.2,3,2.8c0,0.1,0,0.1,0,0.2v17.3c0.1,1.6-1.2,2.9-2.8,3c-1.6,0.1-2.9-1.2-3-2.8c0-0.1,0-0.1,0-0.2
	V13.4z M35.5,50.4c-10.8,0-19.6-8.8-19.6-19.6c0-6.2,2.9-12,7.9-15.7c1.1-0.8,2.8-0.6,3.6,0.5c0.8,1.1,0.6,2.8-0.5,3.6l0,0
	c-6.4,4.8-7.8,13.8-3,20.3s13.8,7.8,20.3,3c3.7-2.7,5.8-7,5.8-11.6c0-4.6-2.2-8.9-5.9-11.6c-1.2-0.8-1.4-2.5-0.6-3.6
	s2.5-1.4,3.6-0.6l0,0c8.7,6.4,10.6,18.7,4.1,27.4C47.6,47.4,41.7,50.4,35.5,50.4z"/>
</svg>
