<?xml version="1.0" standalone="no"?><!DOCTYPE svg PUBLIC "-//W3C//DTD SVG 1.1//EN" "http://www.w3.org/Graphics/SVG/1.1/DTD/svg11.dtd"><svg t="1589890273855" class="icon" viewBox="0 0 1024 1024" version="1.1" xmlns="http://www.w3.org/2000/svg" p-id="2029" xmlns:xlink="http://www.w3.org/1999/xlink" width="64" height="64"><defs><style type="text/css"></style></defs><path d="M932.571429 54.857143H91.428571c-20.228571 0-36.571429 16.342857-36.571428 36.571428v841.142858c0 20.228571 16.342857 36.571429 36.571428 36.571428h841.142858c20.228571 0 36.571429-16.342857 36.571428-36.571428V91.428571c0-20.228571-16.342857-36.571429-36.571428-36.571428zM347.428571 777.142857c0 5.028571-4.114286 9.142857-9.142857 9.142857h-91.428571c-5.028571 0-9.142857-4.114286-9.142857-9.142857V246.857143c0-5.028571 4.114286-9.142857 9.142857-9.142857h91.428571c5.028571 0 9.142857 4.114286 9.142857 9.142857v530.285714z m219.428572-320c0 5.028571-4.114286 9.142857-9.142857 9.142857h-91.428572c-5.028571 0-9.142857-4.114286-9.142857-9.142857V246.857143c0-5.028571 4.114286-9.142857 9.142857-9.142857h91.428572c5.028571 0 9.142857 4.114286 9.142857 9.142857v210.285714z m219.428571 82.285714c0 5.028571-4.114286 9.142857-9.142857 9.142858h-91.428571c-5.028571 0-9.142857-4.114286-9.142857-9.142858V246.857143c0-5.028571 4.114286-9.142857 9.142857-9.142857h91.428571c5.028571 0 9.142857 4.114286 9.142857 9.142857v292.571428z" p-id="2030"></path></svg>