<?xml version="1.0" encoding="utf-8"?>
<!-- Generator: Adobe Illustrator 22.1.0, SVG Export Plug-In . SVG Version: 6.00 Build 0)  -->
<svg version="1.1" id="Layer_1" xmlns="http://www.w3.org/2000/svg" xmlns:xlink="http://www.w3.org/1999/xlink" x="0px" y="0px"
	 viewBox="0 0 64 64" style="enable-background:new 0 0 64 64;" xml:space="preserve">
<style type="text/css">
	.st0{fill:#AFB1B3;}
</style>
<path class="st0" d="M32,1.6c-14.3,0-25.8,3.9-25.8,8.7v6.9c0,4.8,11.6,8.7,25.8,8.7s25.8-3.9,25.8-8.7v-6.9
	C57.8,5.5,46.3,1.6,32,1.6z M32,31c-14.3,0-25.8-3.9-25.8-8.7v10.4c0,4.8,11.6,8.7,25.8,8.7s25.8-3.9,25.8-8.7V22.4
	C57.8,27.1,46.3,31,32,31L32,31z M32,46.6c-14.3,0-25.8-3.9-25.8-8.7v10.4C6.2,53.1,17.7,57,32,57s25.8-3.9,25.8-8.7V37.9
	C57.8,42.7,46.3,46.6,32,46.6L32,46.6z"/>
</svg>
