<?xml version="1.0" encoding="utf-8"?>
<!-- Generator: Adobe Illustrator 22.1.0, SVG Export Plug-In . SVG Version: 6.00 Build 0)  -->
<svg version="1.1" id="Layer_1" xmlns="http://www.w3.org/2000/svg" xmlns:xlink="http://www.w3.org/1999/xlink" x="0px" y="0px"
	 viewBox="0 0 64 64" style="enable-background:new 0 0 64 64;" xml:space="preserve">
<style type="text/css">
	.st0{fill:#F8E683;}
</style>
<path class="st0" d="M64,22c0,12.2-9.8,22-22,22c-1.4,0-2.8-0.1-4.1-0.4l-3,3.4c-0.6,0.6-1.4,1-2.2,1H28v5c0,1.7-1.3,3-3,3h-5v5
	c0,1.7-1.3,3-3,3H3c-1.7,0-3-1.3-3-3v-9.8c0-0.8,0.3-1.6,0.9-2.1l20.2-20.2C20.4,26.7,20,24.4,20,22C20,9.8,29.8,0,42,0
	C54.2,0,64,9.8,64,22z M42,16c0,3.3,2.7,6,6,6s6-2.7,6-6s-2.7-6-6-6S42,12.7,42,16z"/>
</svg>
