<?xml version="1.0" encoding="utf-8"?>
<!-- Generator: Adobe Illustrator 22.1.0, SVG Export Plug-In . SVG Version: 6.00 Build 0)  -->
<svg version="1.1" id="Layer_1" xmlns="http://www.w3.org/2000/svg" xmlns:xlink="http://www.w3.org/1999/xlink" x="0px" y="0px"
	 viewBox="0 0 64 64" style="enable-background:new 0 0 64 64;" xml:space="preserve">
<style type="text/css">
	.st0{fill:#AFB1B3;}
</style>
<path class="st0" d="M9.2,8.7h18.1c0.4,0,0.8,0.4,0.8,0.8l1.2,32.6l18.1-33c0-0.4,0.4-0.4,0.8-0.4h14.5c0.4,0,0.8,0.4,0.8,0.8
	L55.5,55c0,0.4-0.4,0.8-0.8,0.8l-10.2-0.4c-0.4,0-0.8-0.4-0.8-0.8l5.5-27.1c0-0.4-0.4-0.4-0.4-0.4L32,55c0,0.4,0,0.8-0.4,0.8H21
	c-0.4,0-0.8-0.4-0.8-0.8l-2.7-25.9c0-0.4-0.4-0.4-0.4,0L12.3,55c0,0.4-0.4,0.8-0.8,0.8H1.3c-0.4,0-0.8-0.8-0.8-1.2L8.4,9.5
	C8.4,9.1,8.8,8.7,9.2,8.7z"/>
</svg>
