<?xml version="1.0" encoding="utf-8"?>
<!-- Generator: Adobe Illustrator 22.1.0, SVG Export Plug-In . SVG Version: 6.00 Build 0)  -->
<svg version="1.1" id="Layer_1" xmlns="http://www.w3.org/2000/svg" xmlns:xlink="http://www.w3.org/1999/xlink" x="0px" y="0px"
	 viewBox="0 0 64 64" style="enable-background:new 0 0 64 64;" xml:space="preserve">
<style type="text/css">
	.st0{fill:#AFB1B3;}
</style>
<path class="st0" d="M36.6,48.5c-3.6,1.9-5.6,1.8-8.4,0.5C25.4,47.6,1.9,37.8,1.9,37.8l0,0v7.1c0,0.6,0.9,1.3,2.5,2
	c3.2,1.5,21.1,8.7,23.9,10.1c2.8,1.4,4.8,1.4,8.4-0.5c3.6-1.9,20.4-8.8,23.6-10.5l0,0c1.6-0.9,2.4-1.5,2.4-2.1c0-0.6,0-7,0-7h0
	C62.6,36.9,40.2,46.6,36.6,48.5z"/>
<path class="st0" d="M36.6,38.5c-3.6,1.9-5.6,1.8-8.4,0.5C25.4,37.6,1.9,27.8,1.9,27.8l0,0v7.1c0,0.6,0.9,1.3,2.5,2
	c3.2,1.5,21.1,8.8,23.9,10.1c2.8,1.4,4.8,1.4,8.4-0.5c3.6-1.9,20.4-8.8,23.6-10.5c1.6-0.9,2.4-1.5,2.4-2.1c0-0.6,0-7,0-7h0
	C62.6,26.9,40.2,36.6,36.6,38.5z"/>
<path class="st0" d="M62.6,17.5c0-0.6-0.8-1.2-2.4-1.8c-3.2-1.2-19.8-7.8-23-9C34,5.6,32.7,5.7,28.9,7S7.4,15.3,4.2,16.6
	c-1.6,0.6-2.4,1.2-2.3,1.8v0v7c0,0,23.5,9.9,26.4,11.3c2.8,1.4,4.8,1.4,8.4-0.5c3.6-1.9,26-11.7,26-11.7L62.6,17.5L62.6,17.5
	L62.6,17.5z M54.7,17.7l-9.2,3.6l-8.3-3.3l9.2-3.6L54.7,17.7z M37.7,21.2l-4.3,6.2l-9.8-4.1L37.7,21.2z M30.3,11.7L29,9.2l4.2,1.7
	l4-1.3l-1.1,2.6l4.1,1.5l-5.3,0.5L33.7,17l-1.9-3.2l-6.1-0.5L30.3,11.7z M19.8,15.2c4.2,0,7.5,1.3,7.5,2.9c0,1.6-3.4,2.9-7.5,2.9
	s-7.5-1.3-7.5-2.9C12.3,16.5,15.7,15.2,19.8,15.2z"/>
</svg>
