<?xml version="1.0" encoding="utf-8"?>
<!-- Generator: Adobe Illustrator 22.1.0, SVG Export Plug-In . SVG Version: 6.00 Build 0)  -->
<svg version="1.1" id="Layer_1" xmlns="http://www.w3.org/2000/svg" xmlns:xlink="http://www.w3.org/1999/xlink" x="0px" y="0px"
	 viewBox="0 0 32 32" style="enable-background:new 0 0 32 32;" xml:space="preserve">
<style type="text/css">
	.st0{fill:#10A9F5;}
	.st1{fill:#FFFFFF;}
</style>
<path class="st0" d="M26.2,2H5.7C5.2,2,2,2,2,5.7v20.5c0,3.7,3.7,3.7,3.7,3.7h20.5c3.7,0,3.7-3.7,3.7-3.7V5.7C30,2,26.8,2,26.2,2
	L26.2,2z M28.1,26.2c0,0,0,1.9-1.9,1.9H5.7c0,0-1.9,0-1.9-1.9V5.7c0-1.9,1.3-1.9,1.9-1.9h20.5c0.5,0,1.9,0,1.9,1.9L28.1,26.2
	L28.1,26.2z M7.9,11.3h16.2V9.4H7.9V11.3L7.9,11.3z M7.9,16.9h16.2V15L7.9,15V16.9L7.9,16.9z M7.9,22.5h16.2v-1.9l-16.2,0V22.5
	L7.9,22.5z"/>
<rect x="2.9" y="3.4" class="st0" width="25.8" height="24.9"/>
<rect x="7.9" y="9.4" class="st1" width="16.2" height="1.9"/>
<rect x="7.9" y="15" class="st1" width="16.2" height="1.9"/>
<rect x="7.9" y="20.6" class="st1" width="16.2" height="1.9"/>
</svg>
