<?xml version="1.0" encoding="utf-8"?>
<!-- Generator: Adobe Illustrator 22.0.1, SVG Export Plug-In . SVG Version: 6.00 Build 0)  -->
<svg version="1.1" id="Layer_1" xmlns="http://www.w3.org/2000/svg" xmlns:xlink="http://www.w3.org/1999/xlink" x="0px" y="0px"
	 viewBox="0 0 200 200" style="enable-background:new 0 0 200 200;" xml:space="preserve">
<style type="text/css">
	.st0{fill:none;stroke:#BBBBBB;stroke-width:15;stroke-miterlimit:10;}
	.st1{fill:#1296DB;stroke:#1296DB;stroke-width:7;stroke-miterlimit:10;}
</style>
<path class="st0" d="M144,70.2c-0.1,0-0.3,0-0.5,0C140.2,47,118.8,31,95.7,34.3c-14.1,2-26.2,10.9-32.2,23.8
	c-16.6,1.1-29.2,15.5-28.1,32.1c1.1,15.9,14.2,28.2,30.2,28.2H78c4.5,0,5.6,0,9.9,0c1.6,0,4.4,0.1,6,0c0.1,0,0.2,0,0.4,0h2.5
	c1.7,0-0.2,0,5.2,0c5,0,2.7,0,5,0h4c4.8,0,6.5,0,10.8,0c1.4,0,2.4,0,3.8-0.1H144c13.3,0,24.1-10.8,24.1-24.1
	C168.2,81,157.4,70.2,144,70.2z"/>
<path class="st1" d="M118.6,147.2l-11.9,9.6v-54.5c-0.1-2.8-2.4-4.9-5.2-4.8c-2.6,0.1-4.7,2.2-4.8,4.8v54.5l-11.9-9.6
	c-2.1-1.8-5.3-1.5-7,0.6c-1.8,2.1-1.5,5.3,0.6,7c0.1,0,0.1,0.1,0.2,0.1l20,16.3c1.8,1.5,4.5,1.5,6.3,0l20-16.3c2.2-1.7,2.6-4.8,1-7
	c-1.7-2.2-4.8-2.6-7-1C118.7,147.1,118.6,147.1,118.6,147.2z"/>
</svg>
