<?xml version="1.0" standalone="no"?><!DOCTYPE svg PUBLIC "-//W3C//DTD SVG 1.1//EN" "http://www.w3.org/Graphics/SVG/1.1/DTD/svg11.dtd"><svg t="1590455475984" class="icon" viewBox="0 0 1024 1024" version="1.1" xmlns="http://www.w3.org/2000/svg" p-id="2697" xmlns:xlink="http://www.w3.org/1999/xlink" width="64" height="64"><defs><style type="text/css"></style></defs><path d="M512 0C229.216 0 0 71.648 0 160v128c0 88.352 229.216 160 512 160s512-71.648 512-160V160c0-88.352-229.216-160-512-160z" p-id="2698"></path><path d="M512 544c-282.784 0-512-71.648-512-160v192c0 88.352 229.216 160 512 160s512-71.648 512-160v-192c0 88.352-229.216 160-512 160z" p-id="2699"></path><path d="M512 832c-282.784 0-512-71.648-512-160v192c0 88.352 229.216 160 512 160s512-71.648 512-160v-192c0 88.352-229.216 160-512 160z" p-id="2700"></path></svg>