<?xml version="1.0" encoding="utf-8"?>
<!-- Generator: Adobe Illustrator 22.0.1, SVG Export Plug-In . SVG Version: 6.00 Build 0)  -->
<svg version="1.1" id="Layer_1" xmlns="http://www.w3.org/2000/svg" xmlns:xlink="http://www.w3.org/1999/xlink" x="0px" y="0px"
	 viewBox="0 0 32 32" style="enable-background:new 0 0 32 32;" xml:space="preserve">
<path d="M8.8,23.5h2.5c0.1,0,0.3-0.1,0.3-0.3V8.8c0-0.1-0.1-0.3-0.3-0.3H8.8c-0.1,0-0.3,0.1-0.3,0.3v14.5
	C8.5,23.4,8.6,23.5,8.8,23.5z M14.8,14.8h2.5c0.1,0,0.3-0.1,0.3-0.3V8.8c0-0.1-0.1-0.3-0.3-0.3h-2.5c-0.1,0-0.3,0.1-0.3,0.3v5.8
	C14.5,14.6,14.6,14.8,14.8,14.8z M20.8,17h2.5c0.1,0,0.3-0.1,0.3-0.3v-8c0-0.1-0.1-0.3-0.3-0.3h-2.5c-0.1,0-0.3,0.1-0.3,0.3v8
	C20.5,16.9,20.6,17,20.8,17z"/>
<path d="M27.5,3.5h-23c-0.6,0-1,0.4-1,1v23c0,0.6,0.4,1,1,1h23c0.6,0,1-0.4,1-1v-23C28.5,3.9,28.1,3.5,27.5,3.5z M26.3,26.3H5.8V5.8
	h20.5V26.3z"/>
</svg>
