<?xml version="1.0" encoding="utf-8"?>
<!-- Generator: Adobe Illustrator 22.0.1, SVG Export Plug-In . SVG Version: 6.00 Build 0)  -->
<svg version="1.1" id="Layer_1" xmlns="http://www.w3.org/2000/svg" xmlns:xlink="http://www.w3.org/1999/xlink" x="0px" y="0px"
	 viewBox="0 0 32 32" style="enable-background:new 0 0 32 32;" xml:space="preserve">
<style type="text/css">
	.st0{stroke:#000000;stroke-miterlimit:10;}
</style>
<path class="st0" d="M2.7,11.3V7.1C2.7,5.9,3.6,5,4.8,5H27c1.2,0,2.1,0.9,2.1,2.1v4.2c0,0.5-0.2,1-0.5,1.4c0.3,0.4,0.5,0.9,0.5,1.4
	v4.2c0,0.5-0.2,1-0.5,1.4c0.3,0.4,0.5,0.9,0.5,1.4v4.2c0,1.2-0.9,2.1-2.1,2.1H4.8c-1.2,0-2.1-0.9-2.1-2.1c0,0,0,0,0,0V21
	c0-0.5,0.2-1,0.5-1.4c-0.3-0.4-0.5-0.9-0.5-1.4V14c0-0.5,0.2-1,0.5-1.4C2.9,12.3,2.7,11.8,2.7,11.3z M4.8,12H27
	c0.4,0,0.7-0.3,0.7-0.7V7.1c0-0.4-0.3-0.7-0.7-0.7H4.8c-0.4,0-0.7,0.3-0.7,0.7v4.2C4.1,11.6,4.4,12,4.8,12C4.8,12,4.8,12,4.8,12z
	 M27,13.3H4.8c-0.4,0-0.7,0.3-0.7,0.7l0,0v4.2c0,0.4,0.3,0.7,0.7,0.7H27c0.4,0,0.7-0.3,0.7-0.7V14C27.7,13.7,27.4,13.3,27,13.3z
	 M27,20.3H4.8c-0.4,0-0.7,0.3-0.7,0.7v4.2c0,0.4,0.3,0.7,0.7,0.7H27c0.4,0,0.7-0.3,0.7-0.7V21C27.7,20.6,27.4,20.3,27,20.3z
	 M25.7,16.1c0,0.8-0.6,1.4-1.4,1.4c-0.8,0-1.4-0.6-1.4-1.4c0,0,0,0,0,0c0-0.8,0.6-1.4,1.4-1.4C25,14.7,25.7,15.4,25.7,16.1z
	 M25.7,9.2c0,0.8-0.6,1.4-1.4,1.4c-0.8,0-1.4-0.6-1.4-1.4c0,0,0,0,0,0c0-0.8,0.6-1.4,1.4-1.4C25,7.8,25.7,8.4,25.7,9.2z M25.7,23.1
	c0,0.8-0.6,1.4-1.4,1.4c-0.8,0-1.4-0.6-1.4-1.4c0,0,0,0,0,0c0-0.8,0.6-1.4,1.4-1.4C25,21.7,25.7,22.3,25.7,23.1z M21.5,16.1
	c0,0.8-0.6,1.4-1.4,1.4c-0.8,0-1.4-0.6-1.4-1.4c0,0,0,0,0,0c0-0.8,0.6-1.4,1.4-1.4C20.9,14.7,21.5,15.4,21.5,16.1z M21.5,9.2
	c0,0.8-0.6,1.4-1.4,1.4c-0.8,0-1.4-0.6-1.4-1.4c0,0,0,0,0,0c0-0.8,0.6-1.4,1.4-1.4C20.9,7.8,21.5,8.4,21.5,9.2z M21.5,23.1
	c0,0.8-0.6,1.4-1.4,1.4c-0.8,0-1.4-0.6-1.4-1.4c0,0,0,0,0,0c0-0.8,0.6-1.4,1.4-1.4C20.9,21.7,21.5,22.3,21.5,23.1z"/>
</svg>
